<svg xmlns="http://www.w3.org/2000/svg" xmlns:xlink="http://www.w3.org/1999/xlink" width="39" height="197" viewBox="0 0 39 197">
    <defs>
        <path id="a" d="M0 0h40v50H0z"/>
        <path id="b" d="M0 49h40v50H0z"/>
        <path id="c" d="M0 98h40v50H0z"/>
        <path id="d" d="M0 147h40v50H0z"/>
    </defs>
    <g fill="none" fill-rule="evenodd">
        <g opacity=".9" transform="translate(-1)">
            <use fill="#FFF" xlink:href="#a"/>
            <path stroke="#D8D8D8" d="M.5.5h39v49H.5z"/>
        </g>
        <g opacity=".9" transform="translate(-1)">
            <use fill="#FFF" xlink:href="#b"/>
            <path stroke="#D8D8D8" d="M.5 49.5h39v49H.5z"/>
        </g>
        <g opacity=".9" transform="translate(-1)">
            <use fill="#FFF" xlink:href="#c"/>
            <path stroke="#D8D8D8" d="M.5 98.5h39v49H.5z"/>
        </g>
        <g opacity=".9" transform="translate(-1)">
            <use fill="#FFF" xlink:href="#d"/>
            <path stroke="#D8D8D8" d="M.5 147.5h39v49H.5z"/>
        </g>
        <path fill="#008DCA" fill-rule="nonzero" d="M25.5 167h-13a1.5 1.5 0 0 0-1.5 1.5v9a1.5 1.5 0 0 0 1.5 1.5h13a1.5 1.5 0 0 0 1.5-1.5v-9a1.5 1.5 0 0 0-1.5-1.5zm0 1.5v1.275c-.7.57-1.818 1.458-4.206 3.328-.526.414-1.569 1.408-2.294 1.397-.725.012-1.768-.983-2.294-1.397-2.388-1.87-3.505-2.757-4.206-3.328V168.5h13zm-13 9v-5.8c.716.57 1.732 1.37 3.28 2.583.682.537 1.879 1.724 3.22 1.717 1.335.007 2.516-1.163 3.22-1.717a530.903 530.903 0 0 0 3.28-2.583v5.8h-13z"/>
        <path fill="#BFBFBF" fill-rule="nonzero" d="M15.134 83H12.23v-9.347h2.903V83zM13.68 72.378c-.928 0-1.681-.769-1.681-1.697a1.682 1.682 0 0 1 3.362 0c0 .928-.753 1.697-1.681 1.697zM23.1 83v-4.55c0-1.084-.022-2.475-1.51-2.475-1.508 0-1.74 1.178-1.74 2.397V83h-2.899v-9.347h2.784v1.275h.04c.388-.734 1.334-1.51 2.747-1.51 2.936 0 3.477 1.935 3.477 4.448V83h-2.9zM17.324 34v-7.156H15V24h2.324v-2.24c0-2.435 1.443-3.76 3.549-3.76 1.009 0 1.875.078 2.127.113v2.543h-1.46c-1.146 0-1.367.563-1.367 1.385V24h2.585l-.355 2.844h-2.23V34M27.047 121.987c.012.175.012.35.012.525 0 5.338-3.918 11.488-11.08 11.488-2.206 0-4.255-.663-5.979-1.812.313.037.615.05.94.05 1.82 0 3.497-.638 4.835-1.725-1.712-.038-3.147-1.2-3.641-2.8.241.037.482.062.735.062.35 0 .7-.05 1.025-.137-1.784-.376-3.122-2-3.122-3.963v-.05c.518.3 1.12.488 1.76.512a4.075 4.075 0 0 1-1.736-3.362c0-.75.193-1.438.53-2.038 1.917 2.45 4.798 4.05 8.03 4.225a4.72 4.72 0 0 1-.097-.924c0-2.226 1.736-4.038 3.894-4.038 1.121 0 2.134.487 2.845 1.275a7.503 7.503 0 0 0 2.472-.975 4.004 4.004 0 0 1-1.712 2.225A7.59 7.59 0 0 0 29 119.9a8.546 8.546 0 0 1-1.953 2.087z"/>
    </g>
</svg>
